# xmcd
#
# Track frame offsets:
#	150
#	14660
#	27822
#	37667
#	51937
#	63537
#	76577
#	89505
#	102587
#	112622
#	120265
#	132152
#	141217
#	157862
#	167817
#	176045
#	184157
#	192977
#	206150
#	216597
#	225000
#	233850
#	247937
#
# Disc length: 3555 seconds
#
# Revision: 1
# Processed by: cddbd v1.5PL3 Copyright (c) Steve Scherf et al.
# Submitted via: audiograbber 1.80
#
DISCID=2d0de117
DTITLE=mitchell torok - Mexican Joe In The Caribbean disc 4
DYEAR=1900
DGENRE=
TTITLE0=El Tigre 
TTITLE1=Eating My Heart Out 
TTITLE2=The Comancheros 
TTITLE3=Rio Grande 
TTITLE4=Fool's Disguise 
TTITLE5=A Mighty, Mighty Man 
TTITLE6=For Somebody Who's Supposed To Be Hurtin' 
TTITLE7=I'm Not Myself 
TTITLE8=Hawaiian Sunset 
TTITLE9=Little Secrets 
TTITLE10=I Wish 
TTITLE11=Timid Soul 
TTITLE12=El Tigre 
TTITLE13=Summer Romance 
TTITLE14=Your Love 
TTITLE15=Too Bad 
TTITLE16=Four Your Precious Love 
TTITLE17=The Tree 
TTITLE18=What Goes On In Your Heart 
TTITLE19=Imagination 
TTITLE20=Hidin' The Hurt 
TTITLE21=Little Teenage Heart 
TTITLE22=Country Music I Gave You The Best Years Of... 
EXTD=
EXTT0=
EXTT1=
EXTT2=
EXTT3=
EXTT4=
EXTT5=
EXTT6=
EXTT7=
EXTT8=
EXTT9=
EXTT10=
EXTT11=
EXTT12=
EXTT13=
EXTT14=
EXTT15=
EXTT16=
EXTT17=
EXTT18=
EXTT19=
EXTT20=
EXTT21=
EXTT22=
PLAYORDER=
